<svg width="40" height="40" viewBox="0 0 40 40" fill="none" xmlns="http://www.w3.org/2000/svg">
<rect x="1" y="1" width="38" height="38" rx="19" fill="#5B41FF"/>
<rect x="1" y="1" width="38" height="38" rx="19" stroke="#3232FC" stroke-width="2"/>
<path d="M17.0001 22.22H11.9201C11.3101 22.22 10.7501 22.53 10.4301 23.05C10.1101 23.56 10.0801 24.17 10.3401 24.71C11.5701 27.23 13.7901 29.21 16.4301 30.14C16.6101 30.2 16.8101 30.24 17.0001 30.24C17.3501 30.24 17.7001 30.13 18.0001 29.92C18.4701 29.59 18.7501 29.05 18.7501 28.48L18.7601 23.98C18.7601 23.51 18.5801 23.07 18.2501 22.74C17.9101 22.41 17.4701 22.22 17.0001 22.22Z" fill="black"/>
<path d="M30.4799 17.6C29.3599 12.68 25.0499 9.25 19.9999 9.25C14.9499 9.25 10.6399 12.68 9.51993 17.6C9.39993 18.12 9.51993 18.65 9.85993 19.07C10.1999 19.49 10.6999 19.73 11.2399 19.73H28.7699C29.3099 19.73 29.8099 19.49 30.1499 19.07C30.4799 18.65 30.5999 18.11 30.4799 17.6Z" fill="black"/>
<path d="M28.06 22.27L23 22.26C22.53 22.26 22.09 22.44 21.76 22.77C21.43 23.1 21.25 23.54 21.25 24.01L21.26 28.49C21.26 29.06 21.54 29.6 22.01 29.93C22.31 30.14 22.66 30.25 23.01 30.25C23.2 30.25 23.39 30.22 23.57 30.15C26.19 29.23 28.41 27.26 29.64 24.77C29.9 24.24 29.87 23.62 29.56 23.12C29.23 22.58 28.67 22.27 28.06 22.27Z" fill="black"/>
</svg>
