<svg width="40" height="40" viewBox="0 0 40 40" fill="none" xmlns="http://www.w3.org/2000/svg">
<rect x="1" y="1" width="38" height="38" rx="19" fill="#BD00FF"/>
<rect x="1" y="1" width="38" height="38" rx="19" stroke="#CC00FF" stroke-width="2"/>
<path d="M29 30H11C10.59 30 10.25 29.66 10.25 29.25C10.25 28.84 10.59 28.5 11 28.5H29C29.41 28.5 29.75 28.84 29.75 29.25C29.75 29.66 29.41 30 29 30Z" fill="black"/>
<path d="M27.0201 11.48C25.0801 9.53997 23.1801 9.48997 21.1901 11.48L19.9801 12.69C19.8801 12.79 19.8401 12.95 19.8801 13.09C20.6401 15.74 22.7601 17.86 25.4101 18.62C25.4501 18.63 25.4901 18.64 25.5301 18.64C25.6401 18.64 25.7401 18.6 25.8201 18.52L27.0201 17.31C28.0101 16.33 28.4901 15.38 28.4901 14.42C28.5001 13.43 28.0201 12.47 27.0201 11.48Z" fill="black"/>
<path d="M23.6101 19.53C23.3201 19.39 23.0401 19.25 22.7701 19.09C22.5501 18.96 22.3401 18.82 22.1301 18.67C21.9601 18.56 21.7601 18.4 21.5701 18.24C21.5501 18.23 21.4801 18.17 21.4001 18.09C21.0701 17.81 20.7001 17.45 20.3701 17.05C20.3401 17.03 20.2901 16.96 20.2201 16.87C20.1201 16.75 19.9501 16.55 19.8001 16.32C19.6801 16.17 19.5401 15.95 19.4101 15.73C19.2501 15.46 19.1101 15.19 18.9701 14.91C18.9489 14.8646 18.9284 14.8194 18.9085 14.7745C18.7609 14.4412 18.3263 14.3438 18.0685 14.6015L12.3401 20.33C12.2101 20.46 12.0901 20.71 12.0601 20.88L11.5201 24.71C11.4201 25.39 11.6101 26.03 12.0301 26.46C12.3901 26.81 12.8901 27 13.4301 27C13.5501 27 13.6701 26.99 13.7901 26.97L17.6301 26.43C17.8101 26.4 18.0601 26.28 18.1801 26.15L23.9014 20.4287C24.1609 20.1691 24.063 19.7237 23.7254 19.5796C23.6874 19.5634 23.649 19.5469 23.6101 19.53Z" fill="black"/>
</svg>
