<svg width="40" height="40" viewBox="0 0 40 40" fill="none" xmlns="http://www.w3.org/2000/svg">
<rect x="1" y="1" width="38" height="38" rx="19" fill="#40FFAF"/>
<rect x="1" y="1" width="38" height="38" rx="19" stroke="#08FD5C" stroke-width="2"/>
<path d="M14.67 22H12C10.9 22 10 22.9 10 24V29C10 29.55 10.45 30 11 30H14.67C15.22 30 15.67 29.55 15.67 29V23C15.67 22.45 15.22 22 14.67 22Z" fill="black"/>
<path d="M21.3299 18H18.6599C17.5599 18 16.6599 18.9 16.6599 20V29C16.6599 29.55 17.1099 30 17.6599 30H22.3299C22.8799 30 23.3299 29.55 23.3299 29V20C23.3299 18.9 22.4399 18 21.3299 18Z" fill="black"/>
<path d="M28.0001 25H25.3301C24.7801 25 24.3301 25.45 24.3301 26V29C24.3301 29.55 24.7801 30 25.3301 30H29.0001C29.5501 30 30.0001 29.55 30.0001 29V27C30.0001 25.9 29.1001 25 28.0001 25Z" fill="black"/>
<path d="M23.0099 12.85C23.3199 12.54 23.4399 12.17 23.3399 11.85C23.2399 11.53 22.9299 11.3 22.4899 11.23L21.5299 11.07C21.4899 11.07 21.3999 11 21.3799 10.96L20.8499 9.89998C20.4499 9.08998 19.5399 9.08998 19.1399 9.89998L18.6099 10.96C18.5999 11 18.5099 11.07 18.4699 11.07L17.5099 11.23C17.0699 11.3 16.7699 11.53 16.6599 11.85C16.5599 12.17 16.6799 12.54 16.9899 12.85L17.7299 13.6C17.7699 13.63 17.7999 13.75 17.7899 13.79L17.5799 14.71C17.4199 15.4 17.6799 15.71 17.8499 15.83C18.0199 15.95 18.3899 16.11 18.9999 15.75L19.8999 15.22C19.9399 15.19 20.0699 15.19 20.1099 15.22L20.9999 15.75C21.2799 15.92 21.5099 15.97 21.6899 15.97C21.8999 15.97 22.0499 15.89 22.1399 15.83C22.3099 15.71 22.5699 15.4 22.4099 14.71L22.1999 13.79C22.1899 13.74 22.2199 13.63 22.2599 13.6L23.0099 12.85Z" fill="black"/>
</svg>
