<svg width="40" height="40" viewBox="0 0 40 40" fill="none" xmlns="http://www.w3.org/2000/svg">
<rect x="1" y="1" width="38" height="38" rx="19" fill="#F500DD"/>
<rect x="1" y="1" width="38" height="38" rx="19" stroke="#A406A7" stroke-width="2"/>
<path d="M29.9599 25.84L28.3299 26.39C27.8799 26.54 27.5199 26.89 27.3699 27.35L26.8199 28.98C26.3499 30.39 24.3699 30.36 23.9299 28.95L22.0799 23C21.7199 21.82 22.8099 20.72 23.9799 21.09L29.9399 22.94C31.3399 23.38 31.3599 25.37 29.9599 25.84Z" fill="black"/>
<path d="M29.9999 19.5C29.9999 19.93 29.9699 20.36 29.9199 20.78C29.8799 21.08 29.5699 21.26 29.2799 21.17L24.4299 19.66C23.3499 19.33 22.1999 19.61 21.3999 20.4C20.5999 21.2 20.3099 22.37 20.6499 23.45L22.1499 28.28C22.2399 28.57 22.0499 28.88 21.7499 28.92C21.3299 28.97 20.9199 29 20.4999 29C15.1599 29 10.8599 24.61 10.9999 19.23C11.1399 14.27 15.2699 10.14 20.2299 10C25.6099 9.86003 29.9999 14.16 29.9999 19.5Z" fill="black"/>
</svg>
