<svg width="278" height="52" viewBox="0 0 278 52" fill="none" xmlns="http://www.w3.org/2000/svg">
<g clip-path="url(#clip0_1216_5517)">
<path d="M61.5901 37L59.9201 32.17H53.2601L51.4701 37H43.8501L53.4501 12.84H60.0001L69.6001 37H61.6001H61.5901ZM56.7501 21.7L54.6301 28.07H58.5401L56.7501 21.7Z" fill="white"/>
<path d="M82.62 37.97C73.77 37.97 68.45 32.66 68.45 25.56C68.45 19.63 71.5 12.57 82.1 12.57C87.05 12.57 89.13 13.49 92.25 15.17L89.46 20.51C87.41 19.05 86.19 18.5 83.44 18.5C79.2 18.5 76.6 21.1 76.6 25.38C76.6 29.66 79.02 32.26 83.03 32.26C83.63 32.26 84.03 32.22 84.74 32.08V25.56H92.4V36.39C89.95 37.31 86.23 37.96 82.62 37.96V37.97Z" fill="white"/>
<path d="M94.54 37.31V13.15H112.47V18.49H102.2V22.52H110.61V27.5H102.2V31.97H112.95V37.31H94.54Z" fill="white"/>
<path d="M125.19 37.53L107.35 13.15H116.45L125.6 26.77V13.15H132.59V37.53H125.19Z" fill="white"/>
<path d="M152.11 19.25C152.11 19.25 150.9 18.39 148.21 18.46C144.86 18.54 142.33 21.32 142.33 25.05C142.33 28.78 144.97 32.04 148.95 32.04C151.03 32.04 152.3 31.93 154.38 30.8L156.05 36.22C153.56 37.32 151.81 37.98 147.94 37.98C137.34 37.98 134.18 30.81 134.18 25.13C134.18 19.45 137.58 12.06 147.94 12.54C150.4 16.47 152.1 19.26 152.1 19.26L152.11 19.25Z" fill="white"/>
<path d="M166.2 27.32V37.64H158.54V27.28L149.9 12.29H158.16L162.63 21.13L167.29 12.29H175.62L166.2 27.32Z" fill="white"/>
<path d="M112.63 13.06H111.13V21.27H112.63V13.06Z" fill="white"/>
<path d="M17.74 37.46L16.07 32.63H9.41L7.62 37.46H0L9.6 13.3H16.15L25.75 37.46H17.75H17.74ZM12.9 22.16L10.78 28.53H14.69L12.9 22.16Z" fill="white"/>
<path d="M34.93 12.96H28V37.29H34.93V12.96Z" fill="white"/>
<path d="M31.46 10.26C34.0668 10.26 36.18 8.14679 36.18 5.54001C36.18 2.93322 34.0668 0.820007 31.46 0.820007C28.8532 0.820007 26.74 2.93322 26.74 5.54001C26.74 8.14679 28.8532 10.26 31.46 10.26Z" fill="white"/>
<path d="M138.33 8.60001C140.02 8.60001 141.39 7.23 141.39 5.54001C141.39 3.85002 140.02 2.48001 138.33 2.48001C136.64 2.48001 135.27 3.85002 135.27 5.54001C135.27 7.23 136.64 8.60001 138.33 8.60001Z" fill="white"/>
<path d="M268.31 21.22C273.606 21.22 277.9 16.9264 277.9 11.63C277.9 6.3336 273.606 2.04001 268.31 2.04001C263.014 2.04001 258.72 6.3336 258.72 11.63C258.72 16.9264 263.014 21.22 268.31 21.22Z" fill="white"/>
<path d="M223.1 14.48C227.099 14.48 230.34 11.2385 230.34 7.24C230.34 3.24146 227.099 0 223.1 0C219.102 0 215.86 3.24146 215.86 7.24C215.86 11.2385 219.102 14.48 223.1 14.48Z" fill="white"/>
<path d="M187.79 12.49C189.789 12.49 191.41 10.8693 191.41 8.87C191.41 6.87073 189.789 5.25 187.79 5.25C185.791 5.25 184.17 6.87073 184.17 8.87C184.17 10.8693 185.791 12.49 187.79 12.49Z" fill="white"/>
<path d="M228.71 51.9C230.969 51.9 232.8 50.0688 232.8 47.81C232.8 45.5512 230.969 43.72 228.71 43.72C226.451 43.72 224.62 45.5512 224.62 47.81C224.62 50.0688 226.451 51.9 228.71 51.9Z" fill="white"/>
<path d="M190.72 47.72C193.514 47.72 195.78 45.4546 195.78 42.66C195.78 39.8654 193.514 37.6 190.72 37.6C187.925 37.6 185.66 39.8654 185.66 42.66C185.66 45.4546 187.925 47.72 190.72 47.72Z" fill="white"/>
<path d="M227.14 27.02L270.8 11.06L225.09 7.90001L219.94 7.17001L187.5 8.64001" stroke="white" stroke-width="0.58" stroke-miterlimit="10" stroke-linecap="round"/>
<path d="M230.11 46.38L266.82 15.55" stroke="white" stroke-width="0.58" stroke-miterlimit="10"/>
<path d="M220.09 9.25L191.83 40.69L193.6 40.77L223.11 28.54" stroke="white" stroke-width="0.58" stroke-miterlimit="10" stroke-linecap="round"/>
<path d="M193.92 42.5L227.44 48.02" stroke="white" stroke-width="0.58" stroke-miterlimit="10"/>
<path d="M186.69 11.77L190.33 39.98" stroke="white" stroke-width="0.58" stroke-miterlimit="10"/>
<path d="M228.71 47.81L222.13 7.48001" stroke="white" stroke-width="0.58" stroke-miterlimit="10" stroke-linecap="round"/>
<path d="M187.5 8.64001L138.33 5.54001" stroke="white" stroke-miterlimit="10"/>
<path d="M33.4199 5.54001H138.33" stroke="white" stroke-miterlimit="10"/>
</g>
<defs>
<clipPath id="clip0_1216_5517">
<rect width="277.9" height="51.9" fill="white"/>
</clipPath>
</defs>
</svg>
